<?xml version="1.0" standalone="no"?>
<!DOCTYPE svg PUBLIC "-//W3C//DTD SVG 20010904//EN"
 "http://www.w3.org/TR/2001/REC-SVG-20010904/DTD/svg10.dtd">
<svg version="1.0" xmlns="http://www.w3.org/2000/svg"
 width="96.000000pt" height="93.000000pt" viewBox="0 0 96.000000 93.000000"
 preserveAspectRatio="xMidYMid meet">

<g transform="translate(0.000000,93.000000) scale(0.100000,-0.100000)"
fill="#000000" stroke="none">
<path d="M571 893 c-25 -5 -80 -60 -244 -240 l-92 -102 -102 -1 -103 0 0 -250
0 -250 365 0 c393 0 417 3 448 52 8 12 32 97 52 188 41 185 40 205 -17 240
-28 17 -51 20 -150 20 -65 0 -118 3 -118 8 0 4 16 58 35 121 19 62 35 126 35
141 0 52 -49 85 -109 73z m58 -57 c8 -10 0 -51 -38 -172 l-49 -159 153 -3
c209 -4 200 9 152 -210 -25 -113 -42 -171 -54 -179 -12 -10 -82 -13 -265 -13
l-248 0 0 216 0 216 147 159 c148 160 174 179 202 145z m-399 -536 l0 -200
-75 0 -75 0 0 200 0 200 75 0 75 0 0 -200z"/>
</g>
</svg>
